<?xml version="1.0" encoding="iso-8859-1"?>
<!-- Generator: Adobe Illustrator 19.0.0, SVG Export Plug-In . SVG Version: 6.00 Build 0)  -->
<svg version="1.1" id="Layer_1" xmlns="http://www.w3.org/2000/svg" xmlns:xlink="http://www.w3.org/1999/xlink" x="0px" y="0px"
	 viewBox="0 0 512 512" style="enable-background:new 0 0 512 512;" xml:space="preserve">
<path style="fill:#FFECD9;" d="M84.073,409.621c-13.127,0-16.034,22.675-16.034,35.802v34.317c0,13.127,2.906,23.868,16.034,23.868
	h343.852v-93.985H84.073V409.621z"/>
<path style="fill:#DD3B31;" d="M439.86,0H100.85L78.467,204.81l22.383,204.81h350.944V11.934C451.794,5.371,446.424,0,439.86,0z"/>
<g>
	<path style="fill:#991B17;" d="M84.073,0C70.946,0,60.206,10.74,60.206,23.868v421.555c0-13.127,10.74-29.463,23.868-29.463h16.777
		V0H84.073z"/>
	<polygon style="fill:#991B17;" points="361.5,133.676 297.223,133.676 297.223,74.803 255.961,74.803 255.961,133.676 
		191.684,133.676 191.684,174.938 255.961,174.938 255.961,346.751 297.223,346.751 297.223,174.938 361.5,174.938 	"/>
	<path style="fill:#991B17;" d="M443.401,495.213H92.467c-8.532,0-15.474-6.942-15.474-15.474v-42.71
		c0-8.532,6.942-15.474,15.474-15.474h347.4c6.56-0.003,11.928-5.372,11.928-11.933v-4.854H92.467
		c-17.79,0-32.261,14.473-32.261,32.261v42.71c0,17.79,14.473,32.261,32.261,32.261h350.934c4.637,0,8.393-3.758,8.393-8.393
		C451.794,498.971,448.038,495.213,443.401,495.213z"/>
</g>
<g>
</g>
<g>
</g>
<g>
</g>
<g>
</g>
<g>
</g>
<g>
</g>
<g>
</g>
<g>
</g>
<g>
</g>
<g>
</g>
<g>
</g>
<g>
</g>
<g>
</g>
<g>
</g>
<g>
</g>
</svg>
