<?xml version="1.0" encoding="iso-8859-1"?>
<!-- Generator: Adobe Illustrator 19.0.0, SVG Export Plug-In . SVG Version: 6.00 Build 0)  -->
<svg version="1.1" id="Layer_1" xmlns="http://www.w3.org/2000/svg" xmlns:xlink="http://www.w3.org/1999/xlink" x="0px" y="0px"
	 viewBox="0 0 511.999 511.999" style="enable-background:new 0 0 511.999 511.999;" xml:space="preserve">
<path style="fill:#FFBA12;" d="M503.742,360.214c-3.301,0-6.418-1.993-7.693-5.253c-12.705-32.495-31.766-61.692-55.562-86.539
	c-11.928,11.411-24.935,21.938-38.938,31.477c-51.535,35.104-112.6,53.911-176.596,54.386c-42.672,0.337-84.038-7.486-122.93-23.26
	c-37.556-15.231-71.048-37.113-99.543-65.036c-1.568-1.537-2.46-3.634-2.479-5.828c-0.019-2.196,0.838-4.307,2.379-5.87
	c28.08-28.458,61.214-50.951,98.485-66.854c38.635-16.485,79.89-25.057,122.619-25.481c0.687-0.004,1.374-0.007,2.06-0.007
	c63.207,0,123.727,17.916,175.178,51.867c14.22,9.384,27.449,19.78,39.6,31.082c23.54-25.282,42.24-54.891,54.489-87.739
	c1.593-4.274,6.351-6.447,10.622-4.852c4.273,1.593,6.446,6.35,4.852,10.622c-12.951,34.732-32.656,66.375-58.101,93.647
	c25.719,26.801,45.811,58.01,59.246,92.369c1.66,4.247-0.436,9.038-4.684,10.698C505.759,360.031,504.742,360.214,503.742,360.214z
	 M20.129,259.991c54.964,50.838,127.302,78.371,204.697,77.78c78.288-0.581,151.155-30.893,203.784-81.026
	c-53.36-49.418-126.732-78.808-204.993-78.272C146.264,179.238,74.334,208.118,20.129,259.991z"/>
<g>
</g>
<g>
</g>
<g>
</g>
<g>
</g>
<g>
</g>
<g>
</g>
<g>
</g>
<g>
</g>
<g>
</g>
<g>
</g>
<g>
</g>
<g>
</g>
<g>
</g>
<g>
</g>
<g>
</g>
</svg>
